<svg width="70" height="70" viewBox="0 0 70 70" fill="none" xmlns="http://www.w3.org/2000/svg">
<path d="M2.9165 2.91663H14.5832L22.3998 41.9708C22.6666 43.3136 23.3971 44.5198 24.4635 45.3783C25.53 46.2368 26.8644 46.6929 28.2332 46.6666H56.5832C57.952 46.6929 59.2864 46.2368 60.3528 45.3783C61.4193 44.5198 62.1498 43.3136 62.4165 41.9708L67.0832 17.5H17.4998M29.1665 61.25C29.1665 62.8608 27.8607 64.1666 26.2498 64.1666C24.639 64.1666 23.3332 62.8608 23.3332 61.25C23.3332 59.6391 24.639 58.3333 26.2498 58.3333C27.8607 58.3333 29.1665 59.6391 29.1665 61.25ZM61.2498 61.25C61.2498 62.8608 59.944 64.1666 58.3332 64.1666C56.7223 64.1666 55.4165 62.8608 55.4165 61.25C55.4165 59.6391 56.7223 58.3333 58.3332 58.3333C59.944 58.3333 61.2498 59.6391 61.2498 61.25Z" stroke="#D6B68A" stroke-width="4" stroke-linecap="round" stroke-linejoin="round"/>
</svg>
