<svg width="79" height="70" viewBox="0 0 79 70" fill="none" xmlns="http://www.w3.org/2000/svg">
<path d="M28.744 21.0114C23.3998 21.0114 19.0459 24.5247 19.0459 28.8993C19.0459 33.2328 23.3998 36.7871 28.744 36.7871C34.0881 36.7871 38.4421 33.2328 38.4421 28.8993C38.4421 24.5247 34.0881 21.0114 28.744 21.0114ZM51.2838 21.0114C45.9396 21.0114 41.5857 24.5247 41.5857 28.8993C41.5857 33.2328 45.9396 36.7871 51.2838 36.7871C56.6751 36.7871 60.9819 33.2328 60.9819 28.8993C60.9976 24.5247 56.6751 21.0114 51.2838 21.0114ZM75.8984 33.3148L74.9553 33.9026V6.7942C74.9553 3.0485 71.7174 0 67.725 0H11.2811C7.2887 0 4.05076 3.0485 4.05076 6.7942V33.9026C3.7364 33.7112 3.37488 33.5062 3.06051 33.3148C0.687074 31.8657 -0.88474 33.8616 0.545611 35.7345C3.42203 38.824 8.89195 42.6107 17.254 45.5772C8.40469 71.7834 38.8507 75.9665 38.3635 62.5422C38.3635 62.4465 38.4106 54.8047 38.4106 49.3365C39.2123 49.4869 39.8881 49.651 40.564 49.7603C40.564 55.1875 40.6112 62.4465 40.6112 62.5422C40.1239 75.9802 70.57 71.797 61.7206 45.5908C70.067 42.6244 75.5526 38.8377 78.429 35.7481C79.8594 33.8616 78.2876 31.8794 75.8984 33.3148ZM71.1044 35.9395C60.2746 41.0523 50.938 40.191 45.861 39.9996C42.1358 39.8766 40.7369 41.2436 40.564 43.4036C38.945 42.3509 37.6404 41.2847 37.3732 41.0659C36.5716 40.3277 35.2198 39.9723 33.1136 40.0133C28.131 40.1637 19.0144 41.0249 8.37325 36.1856V9.88371C8.37325 5.11274 9.77216 3.63633 14.7548 3.63633H64.6914C69.454 3.63633 71.1201 5.39982 71.1201 9.88371V35.9395H71.1044Z" fill="#D6B68A"/>
</svg>
