<svg width="2333" height="281" viewBox="0 0 2333 281" fill="none" xmlns="http://www.w3.org/2000/svg">
<rect width="2333" height="281" fill="#1E1E1E"/>
<g filter="url(#filter0_d_2_177)">
<path d="M14.6794 29.3027C14.6794 18.257 23.6337 9.30273 34.6794 9.30273H2298.88C2309.92 9.30273 2318.88 18.257 2318.88 29.3027V241.396C2318.88 252.441 2309.92 261.396 2298.88 261.396H34.6794C23.6338 261.396 14.6794 252.441 14.6794 241.396V29.3027Z" fill="#141A2F"/>
<path d="M34.6794 9.80273H2298.88C2309.65 9.80275 2318.38 18.5332 2318.38 29.3027V241.396C2318.38 252.165 2309.65 260.895 2298.88 260.896H34.6794C23.9099 260.896 15.1794 252.165 15.1794 241.396V29.3027C15.1794 18.5332 23.9099 9.80273 34.6794 9.80273Z" stroke="#EFF0F7"/>
</g>
<mask id="mask0_2_177" style="mask-type:alpha" maskUnits="userSpaceOnUse" x="14" y="9" width="2305" height="253">
<path d="M34.6794 9.80273H2298.88C2309.65 9.80275 2318.38 18.5332 2318.38 29.3027V241.396C2318.38 252.165 2309.65 260.895 2298.88 260.896H34.6794C23.9099 260.896 15.1794 252.165 15.1794 241.396V29.3027C15.1794 18.5332 23.9099 9.80273 34.6794 9.80273Z" fill="#4A3AFF" stroke="#EFF0F7"/>
</mask>
<g mask="url(#mask0_2_177)">
<path opacity="0.2" d="M1958.9 9.00002C1958.9 17.9299 1961.09 26.7723 1965.34 35.0225C1969.6 43.2726 1975.84 50.7689 1983.71 57.0833C1991.57 63.3977 2000.91 68.4065 2011.19 71.8238C2021.46 75.2411 2032.48 77 2043.6 77C2054.72 77 2065.74 75.2411 2076.01 71.8238C2086.29 68.4065 2095.63 63.3976 2103.49 57.0833C2111.36 50.7689 2117.6 43.2726 2121.85 35.0225C2126.11 26.7723 2128.3 17.9299 2128.3 9L2043.6 9.00002L1958.9 9.00002Z" fill="white"/>
<path opacity="0.1" d="M2133.59 81C2133.59 91.3744 2131.31 101.647 2126.86 111.232C2122.42 120.817 2115.91 129.526 2107.7 136.861C2099.49 144.197 2089.75 150.016 2079.02 153.986C2068.29 157.957 2056.8 160 2045.19 160C2033.58 160 2022.08 157.957 2011.36 153.986C2000.63 150.016 1990.88 144.197 1982.67 136.861C1974.46 129.526 1967.95 120.817 1963.51 111.232C1959.07 101.647 1956.78 91.3744 1956.78 81L2045.19 81H2133.59Z" fill="white"/>
<rect opacity="0.1" x="2130.42" y="82" width="136" height="171.52" transform="rotate(90 2130.42 82)" fill="white"/>
<path opacity="0.07" d="M1951.49 277L2046.81 202.902L2130.42 134L2130.42 277L1951.49 277Z" fill="white"/>
<ellipse opacity="0.07" cx="2225.71" cy="206.5" rx="71.5" ry="92.1128" transform="rotate(90 2225.71 206.5)" fill="white"/>
<path opacity="0.1" d="M16.0589 8.99999C34.5511 9 52.8622 12.272 69.9468 18.6292C87.0314 24.9865 102.555 34.3044 115.631 46.051C128.707 57.7976 139.079 71.7429 146.156 87.0906C153.233 102.438 156.875 118.888 156.875 135.5C156.875 152.112 153.233 168.562 146.156 183.909C139.079 199.257 128.707 213.202 115.631 224.949C102.555 236.696 87.0313 246.014 69.9467 252.371C52.8621 258.728 34.551 262 16.0588 262L16.0588 135.5L16.0589 8.99999Z" fill="white"/>
<rect opacity="0.2" x="2318.88" y="-7" width="143" height="187.402" transform="rotate(90 2318.88 -7)" fill="white"/>
<path opacity="0.2" d="M2278.65 9L2198.55 74.2888L2128.3 135L2128.3 9L2278.65 9Z" fill="white"/>
</g>
<defs>
<filter id="filter0_d_2_177" x="0.679443" y="0.302734" width="2332.2" height="280.093" filterUnits="userSpaceOnUse" color-interpolation-filters="sRGB">
<feFlood flood-opacity="0" result="BackgroundImageFix"/>
<feColorMatrix in="SourceAlpha" type="matrix" values="0 0 0 0 0 0 0 0 0 0 0 0 0 0 0 0 0 0 127 0" result="hardAlpha"/>
<feOffset dy="5"/>
<feGaussianBlur stdDeviation="7"/>
<feColorMatrix type="matrix" values="0 0 0 0 0.0323264 0 0 0 0 0.0598209 0 0 0 0 0.204167 0 0 0 0.04 0"/>
<feBlend mode="normal" in2="BackgroundImageFix" result="effect1_dropShadow_2_177"/>
<feBlend mode="normal" in="SourceGraphic" in2="effect1_dropShadow_2_177" result="shape"/>
</filter>
</defs>
</svg>
